<svg xmlns="http://www.w3.org/2000/svg" width="95.15" height="95.15" viewBox="0 0 95.15 95.15">
  <g id="Group_90" data-name="Group 90" transform="translate(-2 -2)">
    <g id="Layer_2" data-name="Layer 2" transform="translate(2 2)">
      <path id="Path_243" data-name="Path 243" d="M34.545,63.09A28.545,28.545,0,1,1,63.09,34.545,28.545,28.545,0,0,1,34.545,63.09Zm0-47.575a19.03,19.03,0,1,0,19.03,19.03A19.03,19.03,0,0,0,34.545,15.515Z" transform="translate(13.03 13.03)" fill="#3766c3"/>
      <path id="Path_244" data-name="Path 244" d="M49.575,63.847a4.757,4.757,0,0,1-4.757-4.757V40.06A4.757,4.757,0,0,1,49.575,35.3a14.272,14.272,0,1,1,0,28.545Zm0-47.575a4.757,4.757,0,0,1-4.757-4.757V6.757a4.757,4.757,0,0,1,9.515,0v4.757A4.757,4.757,0,0,1,49.575,16.272ZM76.5,27.4a4.738,4.738,0,0,1-3.14-8.088l3.378-3.378a4.757,4.757,0,1,1,6.708,6.708L80.07,26.025A4.758,4.758,0,0,1,76.5,27.4Zm15.89,26.927H87.635a4.757,4.757,0,1,1,0-9.515h4.757a4.757,4.757,0,1,1,0,9.515ZM79.832,84.59a4.757,4.757,0,0,1-3.33-1.38l-3.14-3.378a4.757,4.757,0,0,1,6.47-6.47L83.21,76.74a4.51,4.51,0,0,1-3.378,7.85ZM49.575,97.15a4.757,4.757,0,0,1-4.757-4.757V87.635a4.757,4.757,0,1,1,9.515,0v4.757A4.757,4.757,0,0,1,49.575,97.15ZM19.317,84.59A4.734,4.734,0,0,1,15.939,76.5l3.378-3.14a4.757,4.757,0,0,1,6.708,6.708l-3.378,3.378a4.758,4.758,0,0,1-3.33,1.142Zm-7.8-30.258H6.757a4.757,4.757,0,0,1,0-9.515h4.757a4.757,4.757,0,1,1,0,9.515ZM22.647,27.4a4.757,4.757,0,0,1-3.33-1.38l-3.378-3.378a4.757,4.757,0,0,1,6.708-6.708l3.378,3.378A4.734,4.734,0,0,1,22.647,27.4Z" transform="translate(-2 -2)" fill="#3766c3"/>
    </g>
  </g>
</svg>
