<svg xmlns="http://www.w3.org/2000/svg" width="88.314" height="95.15" viewBox="0 0 88.314 95.15">
  <g id="Group_89" data-name="Group 89" transform="translate(-14 -18.85)">
    <g id="Group_88" data-name="Group 88">
      <path id="Path_241" data-name="Path 241" d="M97.515,90.878c3.576-.248,6.279,3.61,3.9,6.29A50,50,0,1,1,41.688,19.242c3.207-1.6,6.222,2.012,5.05,5.4A50.034,50.034,0,0,0,94,91Q95.773,91,97.515,90.878Z" fill="#3766c3"/>
      <path id="Path_242" data-name="Path 242" d="M69.994,51.377a3,3,0,0,0,1.4-1.359l3.72-7.332a3,3,0,0,1,5.426.16l3.048,7.01a3,3,0,0,0,1.555,1.554l6.528,2.839a3,3,0,0,1,0,5.5L85.145,62.59a3,3,0,0,0-1.555,1.555l-3.048,7.008a3,3,0,0,1-5.426.161L71.4,63.982a3,3,0,0,0-1.4-1.36l-6.2-2.906a3,3,0,0,1,0-5.432Z" fill="#3766c3"/>
    </g>
  </g>
</svg>
